<?xml version="1.0" standalone="no"?>
<!DOCTYPE svg PUBLIC "-//W3C//DTD SVG 20010904//EN"
 "http://www.w3.org/TR/2001/REC-SVG-20010904/DTD/svg10.dtd">
<svg version="1.0" xmlns="http://www.w3.org/2000/svg"
 width="512.000000pt" height="512.000000pt" viewBox="0 0 512.000000 512.000000"
 preserveAspectRatio="xMidYMid meet">
<metadata>
Created by potrace 1.14, written by Peter Selinger 2001-2017
</metadata>
<g transform="translate(0.000000,512.000000) scale(0.100000,-0.100000)"
fill="#000000" stroke="none">
<path d="M2313 3113 c-18 -109 -60 -358 -93 -553 -54 -315 -61 -366 -57 -455
6 -135 31 -201 106 -276 69 -69 123 -89 235 -89 101 0 186 29 285 94 62 41
178 153 168 162 -2 2 -50 -5 -107 -16 -332 -65 -427 -21 -476 221 -14 70 -18
169 -23 597 l-6 514 -32 -199z"/>
<path d="M887 3195 c-20 -14 -37 -31 -37 -37 0 -34 92 -162 174 -243 93 -93
150 -128 276 -171 81 -27 234 -25 320 5 92 32 196 96 260 160 67 67 173 224
168 248 -2 9 -18 27 -37 40 l-33 22 -44 -30 c-65 -44 -158 -85 -249 -110 -116
-32 -346 -32 -460 -1 -89 25 -213 80 -262 118 -17 13 -33 24 -35 24 -2 0 -20
-11 -41 -25z"/>
<path d="M3106 3194 c-20 -14 -36 -30 -36 -37 0 -34 84 -151 170 -237 75 -76
111 -104 171 -133 178 -87 340 -87 519 1 57 27 96 57 160 122 87 86 186 229
177 254 -3 7 -21 22 -40 33 l-34 21 -44 -30 c-64 -44 -156 -84 -251 -110 -118
-32 -346 -31 -463 1 -88 24 -212 79 -261 116 l-31 24 -37 -25z"/>
<path d="M1640 1623 c-55 -20 -54 -90 2 -174 179 -269 481 -445 822 -480 373
-38 784 154 1004 470 58 82 68 133 34 164 -29 26 -56 20 -130 -28 -289 -186
-619 -273 -930 -244 -238 22 -445 94 -672 235 -98 60 -109 65 -130 57z"/>
</g>
</svg>
