<svg width="256" height="256" viewBox="0 0 256 256" fill="none" xmlns="http://www.w3.org/2000/svg">
<path d="M128 248C194.274 248 248 194.274 248 128C248 61.7258 194.274 8 128 8C61.7258 8 8 61.7258 8 128C8 194.274 61.7258 248 128 248Z" fill="#A5F3FC"/>
<path d="M200 168.8C215.464 168.8 228 156.264 228 140.8C228 125.336 215.464 112.8 200 112.8C184.536 112.8 172 125.336 172 140.8C172 156.264 184.536 168.8 200 168.8Z" fill="#67E8F9"/>
<path d="M72.4004 180C85.6552 180 96.4004 169.255 96.4004 156C96.4004 142.745 85.6552 132 72.4004 132C59.1456 132 48.4004 142.745 48.4004 156C48.4004 169.255 59.1456 180 72.4004 180Z" fill="#67E8F9"/>
<path d="M96.8008 236C116.683 236 132.801 219.882 132.801 200C132.801 180.118 116.683 164 96.8008 164C76.9185 164 60.8008 180.118 60.8008 200C60.8008 219.882 76.9185 236 96.8008 236Z" fill="#67E8F9"/>
<path d="M96 84.7998C104.837 84.7998 112 77.6364 112 68.7998C112 59.9633 104.837 52.7998 96 52.7998C87.1634 52.7998 80 59.9633 80 68.7998C80 77.6364 87.1634 84.7998 96 84.7998Z" fill="#67E8F9"/>
<path d="M148 88.7998C156.837 88.7998 164 81.6364 164 72.7998C164 63.9632 156.837 56.7998 148 56.7998C139.163 56.7998 132 63.9632 132 72.7998C132 81.6364 139.163 88.7998 148 88.7998Z" fill="#67E8F9"/>
<path d="M48.4004 119.6C57.2369 119.6 64.4004 112.436 64.4004 103.6C64.4004 94.7631 57.2369 87.5996 48.4004 87.5996C39.5638 87.5996 32.4004 94.7631 32.4004 103.6C32.4004 112.436 39.5638 119.6 48.4004 119.6Z" fill="#67E8F9"/>
<path d="M156 44.7998C160.418 44.7998 164 41.2181 164 36.7998C164 32.3815 160.418 28.7998 156 28.7998C151.582 28.7998 148 32.3815 148 36.7998C148 41.2181 151.582 44.7998 156 44.7998Z" fill="#67E8F9"/>
<path d="M32.4004 164C36.8187 164 40.4004 160.418 40.4004 156C40.4004 151.582 36.8187 148 32.4004 148C27.9821 148 24.4004 151.582 24.4004 156C24.4004 160.418 27.9821 164 32.4004 164Z" fill="#67E8F9"/>
<path d="M208 208C212.418 208 216 204.418 216 200C216 195.582 212.418 192 208 192C203.582 192 200 195.582 200 200C200 204.418 203.582 208 208 208Z" fill="#67E8F9"/>
<path d="M100 131.6C106.627 131.6 112 126.227 112 119.6C112 112.972 106.627 107.6 100 107.6C93.3726 107.6 88 112.972 88 119.6C88 126.227 93.3726 131.6 100 131.6Z" fill="#67E8F9"/>
<path d="M60 70.7998C64.4183 70.7998 68 67.2181 68 62.7998C68 58.3815 64.4183 54.7998 60 54.7998C55.5817 54.7998 52 58.3815 52 62.7998C52 67.2181 55.5817 70.7998 60 70.7998Z" fill="#67E8F9"/>
<path d="M184 226.4C192.837 226.4 200 219.237 200 210.4C200 201.564 192.837 194.4 184 194.4C175.163 194.4 168 201.564 168 210.4C168 219.237 175.163 226.4 184 226.4Z" fill="#67E8F9"/>
<path d="M96.8008 43.2001C96.8008 54.4001 105.601 63.2001 116.801 63.2001C128.001 63.2001 136.801 54.4001 136.801 43.2001C136.801 32.0001 128.001 23.2001 116.801 23.2001C105.601 22.8001 96.8008 32.0001 96.8008 43.2001Z" fill="#67E8F9"/>
<path d="M148 156C134 175.6 102.8 175.2 108.8 141.2C111.2 128 117.6 89.2002 117.6 89.2002V131.6C117.6 162 126 160.8 148 156Z" fill="#0891B2"/>
<path d="M171.2 175.601C143.2 194.801 112.4 194.801 84.7999 175.601C81.5999 173.201 78.3999 177.201 80.7999 181.201C89.1999 195.201 106.4 207.601 128 207.601C149.6 207.601 166.8 195.201 175.2 181.201C177.6 177.201 174.4 173.201 171.2 175.601Z" fill="#0891B2"/>
<path d="M153.6 98.8002C168.4 126.8 198.4 126.8 213.2 98.8002C214 97.2002 212 96.8002 209.6 95.2002C194.8 106.8 170.4 106 157.2 95.2002C154.8 96.8002 152.8 97.6002 153.6 98.8002Z" fill="#0891B2"/>
<path d="M42.8003 98.8002C57.6003 126.8 87.6003 126.8 102.4 98.8002C103.2 97.2002 101.2 96.8002 98.8003 95.2002C84.0003 106.8 59.6003 106 46.4003 95.2002C44.0003 96.8002 42.0003 97.6002 42.8003 98.8002Z" fill="#0891B2"/>
</svg>
